<svg width="101" height="30" viewBox="0 0 101 17" fill="none" xmlns="http://www.w3.org/2000/svg">
<path d="M10.73 0.929999C11.1607 0.929999 11.512 1.07167 11.784 1.355C12.056 1.63833 12.192 2.00667 12.192 2.46V11.708C12.192 12.1387 12.0673 12.4787 11.818 12.728C11.5687 12.9773 11.24 13.102 10.832 13.102C10.4353 13.102 10.1067 12.9773 9.846 12.728C9.59667 12.4787 9.472 12.1387 9.472 11.708V6.71L7.534 10.28C7.34133 10.6427 7.13733 10.9033 6.922 11.062C6.70667 11.2093 6.45167 11.283 6.157 11.283C5.86233 11.283 5.60733 11.2093 5.392 11.062C5.17667 10.9033 4.97267 10.6427 4.78 10.28L2.859 6.812V11.708C2.859 12.1273 2.72867 12.4673 2.468 12.728C2.21867 12.9773 1.89 13.102 1.482 13.102C1.08533 13.102 0.756667 12.9773 0.496 12.728C0.246667 12.4787 0.122 12.1387 0.122 11.708V2.46C0.122 2.00667 0.258 1.63833 0.53 1.355C0.813333 1.07167 1.17033 0.929999 1.601 0.929999C1.907 0.929999 2.18467 1.02067 2.434 1.202C2.68333 1.372 2.893 1.62133 3.063 1.95L6.191 7.832L9.302 1.95C9.65333 1.27 10.1293 0.929999 10.73 0.929999ZM18.4275 4.432C19.7195 4.432 20.6715 4.74367 21.2835 5.367C21.9069 5.979 22.2185 6.914 22.2185 8.172V11.725C22.2185 12.1557 22.0882 12.4957 21.8275 12.745C21.5782 12.983 21.2269 13.102 20.7735 13.102C20.3769 13.102 20.0482 12.9887 19.7875 12.762C19.5382 12.5353 19.4022 12.2293 19.3795 11.844C19.2209 12.252 18.9545 12.5693 18.5805 12.796C18.2065 13.0227 17.7589 13.136 17.2375 13.136C16.6595 13.136 16.1382 13.0227 15.6735 12.796C15.2089 12.558 14.8405 12.235 14.5685 11.827C14.3079 11.4077 14.1775 10.9373 14.1775 10.416C14.1775 9.81533 14.3305 9.33933 14.6365 8.988C14.9539 8.62533 15.4525 8.36467 16.1325 8.206C16.8125 8.04733 17.7305 7.968 18.8865 7.968H19.3455V7.764C19.3455 7.36733 19.2549 7.084 19.0735 6.914C18.8922 6.73267 18.5862 6.642 18.1555 6.642C17.6909 6.642 17.0109 6.80067 16.1155 7.118C15.8549 7.20867 15.6339 7.254 15.4525 7.254C15.1692 7.254 14.9425 7.152 14.7725 6.948C14.6025 6.744 14.5175 6.47767 14.5175 6.149C14.5175 5.89967 14.5685 5.69567 14.6705 5.537C14.7725 5.37833 14.9369 5.23667 15.1635 5.112C15.5602 4.908 16.0589 4.74367 16.6595 4.619C17.2602 4.49433 17.8495 4.432 18.4275 4.432ZM17.9515 11.113C18.3595 11.113 18.6939 10.9713 18.9545 10.688C19.2152 10.3933 19.3455 10.0193 19.3455 9.566V9.362H19.0735C18.3482 9.362 17.8325 9.43 17.5265 9.566C17.2205 9.69067 17.0675 9.906 17.0675 10.212C17.0675 10.4727 17.1469 10.688 17.3055 10.858C17.4755 11.028 17.6909 11.113 17.9515 11.113ZM29.5584 4.466C29.9438 4.432 30.2498 4.52267 30.4764 4.738C30.7031 4.942 30.8164 5.248 30.8164 5.656C30.8164 6.10933 30.7088 6.438 30.4934 6.642C30.2894 6.846 29.9154 6.97633 29.3714 7.033L28.8614 7.084C28.2948 7.152 27.8868 7.33333 27.6374 7.628C27.3994 7.91133 27.2804 8.30233 27.2804 8.801V11.708C27.2804 12.1727 27.1331 12.524 26.8384 12.762C26.5551 12.9887 26.1981 13.102 25.7674 13.102C25.3368 13.102 24.9741 12.9887 24.6794 12.762C24.3961 12.524 24.2544 12.1727 24.2544 11.708V5.826C24.2544 5.39533 24.3961 5.061 24.6794 4.823C24.9741 4.585 25.3254 4.466 25.7334 4.466C26.1528 4.466 26.4871 4.57933 26.7364 4.806C26.9971 5.03267 27.1274 5.35 27.1274 5.758V6.081C27.3088 5.58233 27.6034 5.197 28.0114 4.925C28.4308 4.653 28.8671 4.50567 29.3204 4.483L29.5584 4.466ZM40.0635 10.654C40.3582 10.9373 40.5055 11.266 40.5055 11.64C40.5055 12.014 40.3695 12.3483 40.0975 12.643C39.8368 12.9377 39.5195 13.085 39.1455 13.085C38.8282 13.085 38.5108 12.9433 38.1935 12.66L34.7425 9.379V11.674C34.7425 12.1387 34.5952 12.49 34.3005 12.728C34.0172 12.966 33.6602 13.085 33.2295 13.085C32.7988 13.085 32.4362 12.966 32.1415 12.728C31.8582 12.49 31.7165 12.1387 31.7165 11.674V2.341C31.7165 1.87633 31.8582 1.525 32.1415 1.287C32.4362 1.049 32.7988 0.929999 33.2295 0.929999C33.6602 0.929999 34.0172 1.049 34.3005 1.287C34.5952 1.525 34.7425 1.87633 34.7425 2.341V8.104L37.8875 4.908C38.1708 4.61333 38.4995 4.466 38.8735 4.466C39.2362 4.466 39.5535 4.60767 39.8255 4.891C40.1088 5.163 40.2505 5.47467 40.2505 5.826C40.2505 6.17733 40.1032 6.50033 39.8085 6.795L37.9555 8.631L40.0635 10.654ZM48.6514 10.314C48.9121 10.314 49.1218 10.416 49.2804 10.62C49.4504 10.824 49.5354 11.0903 49.5354 11.419C49.5354 11.8723 49.3144 12.218 48.8724 12.456C48.4871 12.6487 48.0281 12.813 47.4954 12.949C46.9741 13.0737 46.4924 13.136 46.0504 13.136C45.1211 13.136 44.3108 12.9603 43.6194 12.609C42.9281 12.2577 42.3954 11.7533 42.0214 11.096C41.6474 10.4387 41.4604 9.668 41.4604 8.784C41.4604 7.94533 41.6361 7.19733 41.9874 6.54C42.3501 5.87133 42.8488 5.35567 43.4834 4.993C44.1294 4.619 44.8548 4.432 45.6594 4.432C46.4414 4.432 47.1271 4.602 47.7164 4.942C48.3058 5.282 48.7591 5.76367 49.0764 6.387C49.4051 7.01033 49.5694 7.74133 49.5694 8.58C49.5694 8.84067 49.5071 9.04467 49.3824 9.192C49.2691 9.328 49.0991 9.396 48.8724 9.396H44.3844C44.4638 9.94 44.6394 10.331 44.9114 10.569C45.1834 10.807 45.5858 10.926 46.1184 10.926C46.4018 10.926 46.6624 10.8977 46.9004 10.841C47.1384 10.773 47.4048 10.6823 47.6994 10.569C47.8694 10.501 48.0338 10.4443 48.1924 10.399C48.3624 10.3423 48.5154 10.314 48.6514 10.314ZM45.7444 6.472C45.3478 6.472 45.0304 6.60233 44.7924 6.863C44.5544 7.11233 44.4128 7.48067 44.3674 7.968H47.0364C46.9684 6.97067 46.5378 6.472 45.7444 6.472ZM56.0369 10.943C56.7962 10.9883 57.1759 11.3283 57.1759 11.963C57.1759 12.3597 57.0229 12.6543 56.7169 12.847C56.4109 13.0397 55.9745 13.119 55.4079 13.085L54.9319 13.051C53.9119 12.9717 53.1355 12.6657 52.6029 12.133C52.0815 11.589 51.8209 10.8353 51.8209 9.872V6.863H51.3279C50.4212 6.863 49.9679 6.489 49.9679 5.741C49.9679 5.00433 50.4212 4.636 51.3279 4.636H51.8209V3.531C51.8209 3.10033 51.9569 2.76033 52.2289 2.511C52.5009 2.25033 52.8692 2.12 53.3339 2.12C53.7985 2.12 54.1669 2.25033 54.4389 2.511C54.7109 2.76033 54.8469 3.10033 54.8469 3.531V4.636H55.7819C56.6885 4.636 57.1419 5.00433 57.1419 5.741C57.1419 6.489 56.6885 6.863 55.7819 6.863H54.8469V10.127C54.8469 10.3423 54.9092 10.5237 55.0339 10.671C55.1699 10.8183 55.3399 10.8977 55.5439 10.909L56.0369 10.943ZM63.8615 4.432C64.5755 4.432 65.2102 4.619 65.7655 4.993C66.3322 5.35567 66.7685 5.87133 67.0745 6.54C67.3918 7.20867 67.5505 7.97367 67.5505 8.835C67.5505 9.69633 67.3918 10.4557 67.0745 11.113C66.7685 11.759 66.3378 12.2577 65.7825 12.609C65.2272 12.9603 64.5868 13.136 63.8615 13.136C63.3288 13.136 62.8358 13.0283 62.3825 12.813C61.9405 12.5977 61.5948 12.3087 61.3455 11.946V14.836C61.3455 15.2327 61.2095 15.55 60.9375 15.788C60.6655 16.026 60.3085 16.145 59.8665 16.145C59.4018 16.145 59.0278 16.0147 58.7445 15.754C58.4612 15.5047 58.3195 15.1817 58.3195 14.785V5.86C58.3195 5.44067 58.4498 5.10633 58.7105 4.857C58.9825 4.59633 59.3452 4.466 59.7985 4.466C60.2292 4.466 60.5748 4.57933 60.8355 4.806C61.1075 5.03267 61.2605 5.333 61.2945 5.707C61.5325 5.31033 61.8782 4.99867 62.3315 4.772C62.7962 4.54533 63.3062 4.432 63.8615 4.432ZM62.9435 10.875C63.4648 10.875 63.8615 10.6993 64.1335 10.348C64.4168 9.99667 64.5585 9.49233 64.5585 8.835C64.5585 8.14367 64.4168 7.61667 64.1335 7.254C63.8502 6.88 63.4478 6.693 62.9265 6.693C62.4052 6.693 62.0028 6.87433 61.7195 7.237C61.4362 7.59967 61.2945 8.121 61.2945 8.801C61.2945 9.46967 61.4362 9.98533 61.7195 10.348C62.0028 10.6993 62.4108 10.875 62.9435 10.875ZM70.7975 13.102C70.3668 13.102 70.0042 12.9887 69.7095 12.762C69.4262 12.524 69.2845 12.1727 69.2845 11.708V2.341C69.2845 1.87633 69.4262 1.525 69.7095 1.287C70.0042 1.049 70.3668 0.929999 70.7975 0.929999C71.2282 0.929999 71.5852 1.049 71.8685 1.287C72.1632 1.525 72.3105 1.87633 72.3105 2.341V11.708C72.3105 12.1727 72.1632 12.524 71.8685 12.762C71.5852 12.9887 71.2282 13.102 70.7975 13.102ZM78.2988 4.432C79.5908 4.432 80.5428 4.74367 81.1548 5.367C81.7781 5.979 82.0898 6.914 82.0898 8.172V11.725C82.0898 12.1557 81.9594 12.4957 81.6988 12.745C81.4494 12.983 81.0981 13.102 80.6448 13.102C80.2481 13.102 79.9194 12.9887 79.6588 12.762C79.4094 12.5353 79.2734 12.2293 79.2508 11.844C79.0921 12.252 78.8258 12.5693 78.4518 12.796C78.0778 13.0227 77.6301 13.136 77.1088 13.136C76.5308 13.136 76.0094 13.0227 75.5448 12.796C75.0801 12.558 74.7118 12.235 74.4398 11.827C74.1791 11.4077 74.0488 10.9373 74.0488 10.416C74.0488 9.81533 74.2018 9.33933 74.5078 8.988C74.8251 8.62533 75.3238 8.36467 76.0038 8.206C76.6838 8.04733 77.6018 7.968 78.7578 7.968H79.2168V7.764C79.2168 7.36733 79.1261 7.084 78.9448 6.914C78.7634 6.73267 78.4574 6.642 78.0268 6.642C77.5621 6.642 76.8821 6.80067 75.9868 7.118C75.7261 7.20867 75.5051 7.254 75.3238 7.254C75.0404 7.254 74.8138 7.152 74.6438 6.948C74.4738 6.744 74.3888 6.47767 74.3888 6.149C74.3888 5.89967 74.4398 5.69567 74.5418 5.537C74.6438 5.37833 74.8081 5.23667 75.0348 5.112C75.4314 4.908 75.9301 4.74367 76.5308 4.619C77.1314 4.49433 77.7208 4.432 78.2988 4.432ZM77.8228 11.113C78.2308 11.113 78.5651 10.9713 78.8258 10.688C79.0864 10.3933 79.2168 10.0193 79.2168 9.566V9.362H78.9448C78.2194 9.362 77.7038 9.43 77.3978 9.566C77.0918 9.69067 76.9388 9.906 76.9388 10.212C76.9388 10.4727 77.0181 10.688 77.1768 10.858C77.3468 11.028 77.5621 11.113 77.8228 11.113ZM88.1546 13.136C86.7946 13.136 85.718 12.7507 84.9246 11.98C84.1313 11.2093 83.7346 10.161 83.7346 8.835C83.7346 7.96233 83.9273 7.19167 84.3126 6.523C84.698 5.85433 85.2363 5.33867 85.9276 4.976C86.6303 4.61333 87.4293 4.432 88.3246 4.432C88.8006 4.432 89.2766 4.49433 89.7526 4.619C90.2286 4.74367 90.648 4.91933 91.0106 5.146C91.362 5.36133 91.5376 5.69 91.5376 6.132C91.5376 6.48333 91.4526 6.77233 91.2826 6.999C91.124 7.21433 90.9143 7.322 90.6536 7.322C90.4836 7.322 90.3193 7.29933 90.1606 7.254C90.002 7.19733 89.8263 7.118 89.6336 7.016C89.407 6.914 89.2143 6.84033 89.0556 6.795C88.897 6.73833 88.7213 6.71 88.5286 6.71C87.4066 6.71 86.8456 7.39567 86.8456 8.767C86.8456 9.447 86.9873 9.96833 87.2706 10.331C87.5653 10.6823 87.9846 10.858 88.5286 10.858C88.7213 10.858 88.897 10.8353 89.0556 10.79C89.2256 10.7333 89.4126 10.654 89.6166 10.552C89.8433 10.45 90.0246 10.3763 90.1606 10.331C90.308 10.2743 90.4666 10.246 90.6366 10.246C90.8973 10.246 91.107 10.3593 91.2656 10.586C91.4356 10.8013 91.5206 11.0847 91.5206 11.436C91.5206 11.6513 91.4753 11.8497 91.3846 12.031C91.294 12.201 91.1693 12.3313 91.0106 12.422C90.2286 12.898 89.2766 13.136 88.1546 13.136ZM99.7656 10.314C100.026 10.314 100.236 10.416 100.395 10.62C100.565 10.824 100.65 11.0903 100.65 11.419C100.65 11.8723 100.429 12.218 99.9866 12.456C99.6013 12.6487 99.1423 12.813 98.6096 12.949C98.0883 13.0737 97.6066 13.136 97.1646 13.136C96.2353 13.136 95.425 12.9603 94.7336 12.609C94.0423 12.2577 93.5096 11.7533 93.1356 11.096C92.7616 10.4387 92.5746 9.668 92.5746 8.784C92.5746 7.94533 92.7503 7.19733 93.1016 6.54C93.4643 5.87133 93.963 5.35567 94.5976 4.993C95.2436 4.619 95.969 4.432 96.7736 4.432C97.5556 4.432 98.2413 4.602 98.8306 4.942C99.42 5.282 99.8733 5.76367 100.191 6.387C100.519 7.01033 100.684 7.74133 100.684 8.58C100.684 8.84067 100.621 9.04467 100.497 9.192C100.383 9.328 100.213 9.396 99.9866 9.396H95.4986C95.578 9.94 95.7536 10.331 96.0256 10.569C96.2976 10.807 96.7 10.926 97.2326 10.926C97.516 10.926 97.7766 10.8977 98.0146 10.841C98.2526 10.773 98.519 10.6823 98.8136 10.569C98.9836 10.501 99.148 10.4443 99.3066 10.399C99.4766 10.3423 99.6296 10.314 99.7656 10.314ZM96.8586 6.472C96.462 6.472 96.1446 6.60233 95.9066 6.863C95.6686 7.11233 95.527 7.48067 95.4816 7.968H98.1506C98.0826 6.97067 97.652 6.472 96.8586 6.472Z" fill="white"/>
</svg>
