<svg width="86" height="18" viewBox="0 0 86 18" fill="none" xmlns="http://www.w3.org/2000/svg">
<path d="M4.457 1.321C3.59567 1.60433 2.927 2.07467 2.451 2.732C1.98633 3.378 1.754 4.18267 1.754 5.146C1.754 5.57667 1.79367 5.87133 1.873 6.03C1.95233 6.18867 1.992 6.285 1.992 6.319C0.779333 6.319 0.173 5.80333 0.173 4.772C0.173 4.06933 0.439333 3.36667 0.972 2.664C1.516 1.95 2.20733 1.372 3.046 0.929999C3.896 0.476666 4.74033 0.249999 5.579 0.249999C5.99833 0.249999 6.429 0.329332 6.871 0.487999L6.48 9.447L10.22 0.487999H12.668L10.883 13H8.435L9.523 5.367L6.327 13H3.998L4.338 5.333L1.499 13H0.139L4.457 1.321ZM14.7609 13.102C14.1149 13.102 13.5765 12.881 13.1459 12.439C12.7152 11.997 12.4999 11.3057 12.4999 10.365C12.4999 9.52633 12.6642 8.648 12.9929 7.73C13.3329 6.80067 13.8315 6.01867 14.4889 5.384C15.1575 4.738 15.9509 4.415 16.8689 4.415C17.3335 4.415 17.6792 4.49433 17.9059 4.653C18.1325 4.81167 18.2459 5.02133 18.2459 5.282V5.401L18.4329 4.5H20.8809L19.6569 10.28C19.6115 10.45 19.5889 10.6313 19.5889 10.824C19.5889 11.3113 19.8212 11.555 20.2859 11.555C20.6032 11.555 20.8752 11.4077 21.1019 11.113C21.3399 10.8183 21.5269 10.433 21.6629 9.957H22.3769C21.9575 11.181 21.4362 12.014 20.8129 12.456C20.2009 12.8867 19.5832 13.102 18.9599 13.102C18.4839 13.102 18.0985 12.9717 17.8039 12.711C17.5205 12.439 17.3505 12.048 17.2939 11.538C16.9652 12.0027 16.5969 12.3823 16.1889 12.677C15.7922 12.9603 15.3162 13.102 14.7609 13.102ZM15.8659 11.453C16.1492 11.453 16.4269 11.3227 16.6989 11.062C16.9822 10.79 17.1749 10.4217 17.2769 9.957L18.0929 6.115C18.0929 5.96767 18.0362 5.826 17.9229 5.69C17.8095 5.54267 17.6339 5.469 17.3959 5.469C16.9425 5.469 16.5345 5.73533 16.1719 6.268C15.8092 6.78933 15.5259 7.424 15.3219 8.172C15.1179 8.90867 15.0159 9.56033 15.0159 10.127C15.0159 10.6937 15.0952 11.0563 15.2539 11.215C15.4239 11.3737 15.6279 11.453 15.8659 11.453ZM23.1651 4.5H25.6131L25.3921 5.554C25.7774 5.214 26.1231 4.95333 26.4291 4.772C26.7464 4.59067 27.0864 4.5 27.4491 4.5C27.8118 4.5 28.0951 4.62467 28.2991 4.874C28.5144 5.12333 28.6221 5.42367 28.6221 5.775C28.6221 6.10367 28.5144 6.39267 28.2991 6.642C28.0838 6.89133 27.7834 7.016 27.3981 7.016C27.1488 7.016 26.9788 6.95933 26.8881 6.846C26.8088 6.72133 26.7464 6.54567 26.7011 6.319C26.6671 6.17167 26.6331 6.064 26.5991 5.996C26.5651 5.928 26.5028 5.894 26.4121 5.894C26.1741 5.894 25.9701 5.945 25.8001 6.047C25.6414 6.13767 25.4318 6.302 25.1711 6.54L23.8111 13H21.3631L23.1651 4.5ZM35.1327 13.102C34.43 13.102 33.8974 12.9377 33.5347 12.609C33.172 12.269 32.9907 11.7873 32.9907 11.164C32.9907 10.892 33.0247 10.5973 33.0927 10.28L33.2287 9.617C33.274 9.42433 33.2967 9.21467 33.2967 8.988C33.2967 8.444 33.0927 8.172 32.6847 8.172C32.5034 8.172 32.3107 8.223 32.1067 8.325C31.914 8.427 31.6874 8.58567 31.4267 8.801L30.5427 13H28.0947L30.5597 1.44L33.0757 1.1L31.8007 7.084L35.0817 4.5H36.7647L33.3647 6.863C33.5347 6.81767 33.7217 6.795 33.9257 6.795C34.5377 6.795 35.0024 6.982 35.3197 7.356C35.637 7.73 35.7957 8.206 35.7957 8.784C35.7957 9.022 35.773 9.23733 35.7277 9.43L35.5407 10.28C35.484 10.484 35.4557 10.6653 35.4557 10.824C35.4557 11.2433 35.6767 11.453 36.1187 11.453C36.4587 11.453 36.7307 11.334 36.9347 11.096C37.1387 10.8467 37.3427 10.467 37.5467 9.957H38.2607C37.558 12.0537 36.5154 13.102 35.1327 13.102ZM40.3105 13.102C39.4719 13.102 38.8202 12.8867 38.3555 12.456C37.8909 12.014 37.6585 11.3283 37.6585 10.399C37.6585 9.617 37.8115 8.75567 38.1175 7.815C38.4235 6.87433 38.9222 6.064 39.6135 5.384C40.3049 4.69267 41.1832 4.347 42.2485 4.347C43.4952 4.347 44.1185 4.891 44.1185 5.979C44.1185 6.61367 43.9372 7.19733 43.5745 7.73C43.2119 8.26267 42.7302 8.69333 42.1295 9.022C41.5289 9.33933 40.8885 9.52067 40.2085 9.566C40.1859 9.906 40.1745 10.1327 40.1745 10.246C40.1745 10.8013 40.2709 11.181 40.4635 11.385C40.6562 11.5777 40.9679 11.674 41.3985 11.674C42.0105 11.674 42.5319 11.5323 42.9625 11.249C43.4045 10.9657 43.8862 10.535 44.4075 9.957H44.9855C43.7275 12.0537 42.1692 13.102 40.3105 13.102ZM40.3445 8.75C40.7639 8.72733 41.1605 8.58 41.5345 8.308C41.9199 8.036 42.2259 7.69033 42.4525 7.271C42.6905 6.85167 42.8095 6.40967 42.8095 5.945C42.8095 5.48033 42.6679 5.248 42.3845 5.248C41.9765 5.248 41.5742 5.605 41.1775 6.319C40.7922 7.033 40.5145 7.84333 40.3445 8.75ZM46.4269 13.102C45.8829 13.102 45.4409 12.932 45.1009 12.592C44.7723 12.252 44.6079 11.742 44.6079 11.062C44.6079 10.7787 44.6533 10.4103 44.7439 9.957L45.7639 5.18H45.2029L45.3389 4.5H45.8999L46.4099 2.154L48.9259 1.814L48.3479 4.5H49.3679L49.2319 5.18H48.2119L47.1239 10.28C47.0786 10.45 47.0559 10.6313 47.0559 10.824C47.0559 11.0507 47.1069 11.215 47.2089 11.317C47.3223 11.4077 47.5036 11.453 47.7529 11.453C48.0816 11.453 48.3876 11.317 48.6709 11.045C48.9543 10.7617 49.1583 10.399 49.2829 9.957H49.9969C49.5776 11.181 49.0393 12.014 48.3819 12.456C47.7246 12.8867 47.0729 13.102 46.4269 13.102ZM50.9082 3.871H53.3562L53.0842 5.146C53.6508 4.65867 54.3138 4.415 55.0732 4.415C55.7078 4.415 56.2122 4.62467 56.5862 5.044C56.9602 5.46333 57.1472 6.149 57.1472 7.101C57.1472 7.99633 57.0168 8.903 56.7562 9.821C56.4955 10.7277 56.0535 11.504 55.4302 12.15C54.8068 12.7847 53.9852 13.102 52.9652 13.102C52.2398 13.102 51.7582 12.898 51.5202 12.49L50.6362 16.638L48.0692 17.25L50.9082 3.871ZM52.4382 11.623C52.9822 11.623 53.4298 11.368 53.7812 10.858C54.1438 10.348 54.4045 9.74167 54.5632 9.039C54.7332 8.325 54.8182 7.662 54.8182 7.05C54.8182 6.10933 54.5348 5.639 53.9682 5.639C53.7642 5.639 53.5545 5.71267 53.3392 5.86C53.1352 6.00733 52.9538 6.21133 52.7952 6.472L51.7922 11.232C51.8828 11.4927 52.0982 11.623 52.4382 11.623ZM59.5913 13.102C59.0473 13.102 58.6053 12.932 58.2653 12.592C57.9367 12.252 57.7723 11.742 57.7723 11.062C57.7723 10.7787 57.8177 10.4103 57.9083 9.957L59.7273 1.44L62.2433 1.1L60.2883 10.28C60.243 10.45 60.2203 10.6313 60.2203 10.824C60.2203 11.0507 60.2713 11.215 60.3733 11.317C60.4867 11.4077 60.668 11.453 60.9173 11.453C61.246 11.453 61.552 11.317 61.8353 11.045C62.1187 10.7617 62.3227 10.399 62.4473 9.957H63.1613C62.742 11.181 62.2037 12.014 61.5463 12.456C60.889 12.8867 60.2373 13.102 59.5913 13.102ZM64.8205 13.102C64.1745 13.102 63.6362 12.881 63.2055 12.439C62.7749 11.997 62.5595 11.3057 62.5595 10.365C62.5595 9.52633 62.7239 8.648 63.0525 7.73C63.3925 6.80067 63.8912 6.01867 64.5485 5.384C65.2172 4.738 66.0105 4.415 66.9285 4.415C67.3932 4.415 67.7389 4.49433 67.9655 4.653C68.1922 4.81167 68.3055 5.02133 68.3055 5.282V5.401L68.4925 4.5H70.9405L69.7165 10.28C69.6712 10.45 69.6485 10.6313 69.6485 10.824C69.6485 11.3113 69.8809 11.555 70.3455 11.555C70.6629 11.555 70.9349 11.4077 71.1615 11.113C71.3995 10.8183 71.5865 10.433 71.7225 9.957H72.4365C72.0172 11.181 71.4959 12.014 70.8725 12.456C70.2605 12.8867 69.6429 13.102 69.0195 13.102C68.5435 13.102 68.1582 12.9717 67.8635 12.711C67.5802 12.439 67.4102 12.048 67.3535 11.538C67.0249 12.0027 66.6565 12.3823 66.2485 12.677C65.8519 12.9603 65.3759 13.102 64.8205 13.102ZM65.9255 11.453C66.2089 11.453 66.4865 11.3227 66.7585 11.062C67.0419 10.79 67.2345 10.4217 67.3365 9.957L68.1525 6.115C68.1525 5.96767 68.0959 5.826 67.9825 5.69C67.8692 5.54267 67.6935 5.469 67.4555 5.469C67.0022 5.469 66.5942 5.73533 66.2315 6.268C65.8689 6.78933 65.5855 7.424 65.3815 8.172C65.1775 8.90867 65.0755 9.56033 65.0755 10.127C65.0755 10.6937 65.1549 11.0563 65.3135 11.215C65.4835 11.3737 65.6875 11.453 65.9255 11.453ZM74.4998 13.102C73.6611 13.102 73.0095 12.8867 72.5448 12.456C72.0801 12.014 71.8478 11.3283 71.8478 10.399C71.8478 9.617 72.0008 8.75567 72.3068 7.815C72.6241 6.87433 73.1228 6.064 73.8028 5.384C74.4941 4.69267 75.3668 4.347 76.4208 4.347C77.1008 4.347 77.5825 4.49433 77.8658 4.789C78.1605 5.08367 78.3078 5.45767 78.3078 5.911C78.3078 6.30767 78.2228 6.61367 78.0528 6.829C77.8828 7.04433 77.6675 7.152 77.4068 7.152C77.2141 7.152 77.0158 7.084 76.8118 6.948C76.9478 6.574 77.0158 6.23967 77.0158 5.945C77.0158 5.72967 76.9761 5.55967 76.8968 5.435C76.8175 5.31033 76.6985 5.248 76.5398 5.248C76.1998 5.248 75.8598 5.52567 75.5198 6.081C75.1798 6.63633 74.9021 7.31067 74.6868 8.104C74.4715 8.89733 74.3638 9.61133 74.3638 10.246C74.3638 10.8013 74.4601 11.181 74.6528 11.385C74.8455 11.5777 75.1571 11.674 75.5878 11.674C76.1998 11.674 76.7211 11.5323 77.1518 11.249C77.5938 10.9657 78.0755 10.535 78.5968 9.957H79.1748C77.9168 12.0537 76.3585 13.102 74.4998 13.102ZM81.3302 13.102C80.5029 13.102 79.8569 12.8867 79.3922 12.456C78.9275 12.014 78.6952 11.3283 78.6952 10.399C78.6952 9.617 78.8482 8.75567 79.1542 7.815C79.4602 6.87433 79.9589 6.064 80.6502 5.384C81.3415 4.69267 82.2199 4.347 83.2852 4.347C84.5319 4.347 85.1552 4.891 85.1552 5.979C85.1552 6.61367 84.9739 7.19733 84.6112 7.73C84.2485 8.26267 83.7669 8.69333 83.1662 9.022C82.5655 9.33933 81.9252 9.52067 81.2452 9.566C81.2225 9.81533 81.2112 9.98533 81.2112 10.076C81.2112 11.0167 81.5625 11.487 82.2652 11.487C82.5825 11.487 82.9225 11.402 83.2852 11.232C83.6479 11.062 83.9765 10.8467 84.2712 10.586C83.9652 12.2633 82.9849 13.102 81.3302 13.102ZM81.3642 8.75C81.7949 8.73867 82.1972 8.597 82.5712 8.325C82.9565 8.053 83.2625 7.70733 83.4892 7.288C83.7272 6.85733 83.8462 6.40967 83.8462 5.945C83.8462 5.48033 83.7045 5.248 83.4212 5.248C83.0245 5.248 82.6279 5.61067 82.2312 6.336C81.8459 7.05 81.5569 7.85467 81.3642 8.75Z" fill="white"/>
</svg>
